<?xml version="1.0" standalone="no"?>
<!DOCTYPE svg PUBLIC "-//W3C//DTD SVG 20010904//EN"
 "http://www.w3.org/TR/2001/REC-SVG-20010904/DTD/svg10.dtd">
<svg version="1.0" xmlns="http://www.w3.org/2000/svg"
 width="307.000000pt" height="307.000000pt" viewBox="0 0 307.000000 307.000000"
 preserveAspectRatio="xMidYMid meet">
<metadata>
Created by potrace 1.15, written by Peter Selinger 2001-2017
</metadata>
<g transform="translate(0.000000,307.000000) scale(0.100000,-0.100000)"
fill="#000000" stroke="none">
<path d="M1385 2676 c-310 -81 -470 -226 -340 -306 20 -12 38 -34 44 -53 24
-77 33 -315 38 -987 4 -640 3 -712 -12 -780 -28 -121 -29 -135 -9 -154 24 -25
123 -18 162 11 33 25 68 83 83 143 8 31 14 279 19 795 7 666 12 822 35 1021
l6 52 68 31 c72 33 148 51 215 51 155 -1 277 -196 280 -446 1 -86 -1 -95 -37
-167 -63 -127 -164 -205 -323 -247 -43 -12 -84 -26 -91 -32 -19 -16 -16 -42
10 -66 34 -32 149 -82 203 -88 45 -6 54 -3 109 34 65 44 183 155 257 243 114
134 143 219 143 425 l0 120 -42 85 c-44 88 -129 193 -187 229 -86 52 -337 111
-474 110 -37 -1 -107 -12 -157 -24z"/>
</g>
</svg>
